<svg width="2400" height="1701" viewBox="0 0 2400 1701" fill="none" xmlns="http://www.w3.org/2000/svg">
<path d="M2399.41 0C2398.08 0 2397.42 0 2396.07 0C2396.56 566.7 2395.68 1133.3 2396.07 1700C2397.42 1700 2398.08 1700 2399.41 1700C2399.26 1133.32 2399.75 566.68 2399.41 0Z" fill="url(#paint0_radial)"/>
<path d="M2392.19 0C2390.8 0 2390.12 0 2388.73 0C2389.45 566.76 2388.18 1133.22 2388.73 1700C2390.12 1700 2390.8 1700 2392.19 1700C2391.7 1133.26 2392.81 566.72 2392.19 0Z" fill="url(#paint1_radial)"/>
<path d="M2384.73 0C2383.3 0 2382.6 0 2381.18 0C2381.71 287.61 2393.5 574.15 2380.63 861.66C2368.15 1140.86 2380.77 1420.7 2381.18 1700C2382.61 1700 2383.31 1700 2384.73 1700C2384.36 1420.55 2373.56 1140.72 2384.28 861.36C2395.29 574.02 2385.12 287.4 2384.73 0Z" fill="url(#paint2_radial)"/>
<path d="M2377.03 0C2375.56 0 2374.82 0 2373.36 0C2374 288.16 2389.47 574.52 2372.64 862.52C2356.33 1141.25 2372.82 1421.07 2373.36 1700C2374.82 1700 2375.57 1700 2377.03 1700C2376.56 1420.88 2361.89 1141.05 2376.38 862.09C2391.35 574.34 2377.68 287.88 2377.03 0Z" fill="url(#paint3_radial)"/>
<path d="M2369.1 0C2367.58 0 2366.83 0 2365.31 0C2366.13 288.89 2385.31 575 2364.35 863.63C2344.13 1141.78 2364.6 1421.58 2365.31 1700C2366.83 1700 2367.58 1700 2369.1 1700C2368.46 1421.33 2349.84 1141.5 2368.24 863.08C2387.29 574.77 2369.86 288.53 2369.1 0Z" fill="url(#paint4_radial)"/>
<path d="M2360.92 0C2359.36 0 2358.58 0 2357.03 0C2358.01 289.79 2381.09 575.6 2355.8 865.01C2331.56 1142.4 2356.15 1422.19 2357.03 1700C2358.57 1700 2359.35 1700 2360.92 1700C2360.18 1421.89 2337.44 1142.09 2359.81 864.34C2383.09 575.3 2361.82 289.35 2360.92 0Z" fill="url(#paint5_radial)"/>
<path d="M2352.48 0C2350.88 0 2350.08 0 2348.48 0C2349.61 290.87 2376.74 576.34 2346.96 866.69C2318.62 1143.2 2347.45 1422.95 2348.48 1700C2350.08 1700 2350.88 1700 2352.48 1700C2351.54 1422.58 2324.69 1142.81 2351.11 865.87C2378.79 575.98 2353.55 290.34 2352.48 0Z" fill="url(#paint6_radial)"/>
<path d="M2343.79 0C2342.15 0 2341.31 0 2339.65 0C2340.37 159.56 2353.77 318.56 2358.32 478C2362.09 609.88 2353.28 737.9 2337.83 868.68C2305.29 1144.14 2338.47 1423.81 2339.65 1700C2341.31 1700 2342.15 1700 2343.79 1700C2342.7 1423.38 2311.54 1143.67 2342.13 867.71C2356.58 737.14 2364.87 609.01 2361.33 477.48C2357.03 318.23 2344.47 159.37 2343.79 0Z" fill="url(#paint7_radial)"/>
<path d="M2334.84 0C2333.14 0 2332.28 0 2330.58 0C2331.32 160.04 2346.54 319.37 2351.71 479.24C2356.01 611.92 2346.01 739.74 2328.39 871C2291.57 1145.24 2329.15 1424.83 2330.58 1700C2332.28 1700 2333.14 1700 2334.84 1700C2333.49 1424.34 2298 1144.69 2332.83 869.87C2349.43 738.84 2358.87 610.92 2354.82 478.63C2349.94 318.97 2335.55 159.8 2334.84 0Z" fill="url(#paint8_radial)"/>
<path d="M2325.61 0C2323.85 0 2322.97 0 2321.21 0C2322.03 160.6 2339.12 320.29 2344.9 480.67C2349.71 614.27 2338.53 741.85 2318.65 873.67C2277.48 1146.5 2319.59 1425.97 2321.21 1700C2322.97 1700 2323.85 1700 2325.61 1700C2324.13 1425.43 2284.09 1145.9 2323.23 872.38C2342.06 740.83 2352.66 613.14 2348.11 479.98C2342.62 319.84 2326.41 160.32 2325.61 0Z" fill="url(#paint9_radial)"/>
<path d="M2316.07 0C2314.25 0 2313.36 0 2311.54 0C2312.46 161.22 2331.44 321.35 2337.85 482.32C2343.2 616.95 2330.82 744.28 2308.57 876.7C2262.96 1147.99 2309.7 1427.29 2311.54 1700C2313.36 1700 2314.26 1700 2316.07 1700C2314.35 1426.66 2269.78 1147.29 2313.3 875.25C2334.43 743.11 2346.27 615.67 2341.17 481.53C2335.06 320.84 2316.95 160.92 2316.07 0Z" fill="url(#paint10_radial)"/>
<path d="M2306.27 0C2304.39 0 2303.46 0 2301.58 0C2302.54 161.94 2323.51 322.55 2330.56 484.18C2336.48 619.97 2322.87 747.04 2298.16 880.14C2248.1 1149.69 2299.51 1428.71 2301.58 1700C2303.46 1700 2304.39 1700 2306.27 1700C2304.3 1428.03 2255.08 1148.87 2303.05 878.5C2326.61 745.73 2339.65 618.53 2333.99 483.3C2327.25 321.97 2307.21 161.6 2306.27 0Z" fill="url(#paint11_radial)"/>
<path d="M2296.15 0C2294.22 0 2293.24 0 2291.33 0C2292.37 162.74 2315.35 323.9 2323.07 486.28C2329.57 623.32 2314.69 750.18 2287.41 883.96C2232.8 1151.62 2289.01 1430.29 2291.34 1700C2293.25 1700 2294.23 1700 2296.16 1700C2293.97 1429.53 2239.99 1150.7 2292.47 882.13C2318.55 748.67 2332.84 621.71 2326.61 485.27C2319.18 323.25 2297.13 162.36 2296.15 0Z" fill="url(#paint12_radial)"/>
<path d="M2285.72 0C2283.73 0 2282.73 0 2280.74 0C2281.81 163.64 2306.91 325.4 2315.29 488.6C2322.4 627.03 2306.27 753.67 2276.29 888.24C2217.11 1153.81 2278.13 1432.01 2280.74 1700C2282.73 1700 2283.73 1700 2285.72 1700C2283.2 1431.21 2224.47 1152.75 2281.5 886.19C2310.21 752 2325.78 625.25 2318.94 487.49C2310.86 324.68 2286.8 163.21 2285.72 0Z" fill="url(#paint13_radial)"/>
<path d="M2274.96 0C2272.91 0 2271.88 0 2269.82 0C2270.99 164.64 2298.2 327.07 2307.28 491.19C2315.01 631.1 2297.59 757.6 2264.8 892.95C2200.97 1156.29 2266.93 1433.87 2269.82 1700C2271.87 1700 2272.91 1700 2274.96 1700C2272.23 1432.99 2208.54 1155.12 2270.2 890.7C2301.66 755.71 2318.48 629.16 2311.04 489.95C2302.29 326.27 2276.11 164.16 2274.96 0Z" fill="url(#paint14_radial)"/>
<path d="M2263.87 0C2261.76 0 2260.69 0 2258.58 0C2259.83 165.73 2289.21 328.9 2298.99 494.03C2307.39 635.54 2288.68 761.95 2252.94 898.14C2184.42 1159.08 2255.44 1435.86 2258.58 1700C2260.69 1700 2261.76 1700 2263.87 1700C2260.82 1434.9 2192.21 1157.75 2258.5 895.66C2292.86 759.86 2310.96 633.43 2302.89 492.67C2293.44 328.03 2265.02 165.21 2263.87 0Z" fill="url(#paint15_radial)"/>
<path d="M2252.44 0C2250.25 0 2249.16 0 2246.99 0C2248.26 166.93 2279.9 330.91 2290.45 497.16C2299.51 640.38 2279.51 766.78 2240.66 903.81C2167.42 1162.17 2243.47 1437.99 2246.99 1700C2249.16 1700 2250.25 1700 2252.44 1700C2249.08 1436.97 2175.39 1160.68 2246.42 901.11C2283.8 764.47 2303.2 638.08 2294.45 495.66C2284.28 329.95 2253.67 166.36 2252.44 0Z" fill="url(#paint16_radial)"/>
<path d="M2240.64 0C2238.39 0 2237.28 0 2235.04 0C2236.35 168.24 2270.33 333.12 2281.6 500.57C2291.37 645.59 2270.08 772.11 2227.99 910C2149.96 1165.63 2231.21 1440.21 2235.04 1700C2237.29 1700 2238.4 1700 2240.64 1700C2236.95 1439.16 2158.16 1163.96 2233.94 907.05C2274.51 769.56 2295.19 643.12 2285.76 498.94C2274.82 332.06 2241.95 167.62 2240.64 0Z" fill="url(#paint17_radial)"/>
<path d="M2228.5 0C2226.2 0 2225.02 0 2222.72 0C2224.11 169.67 2260.46 335.5 2272.49 504.27C2277.49 574.28 2277.88 644.82 2269.03 714.55C2260.01 785.67 2237.04 849.18 2214.91 916.74C2132.08 1169.47 2218.52 1442.6 2222.72 1700C2225.03 1700 2226.2 1700 2228.5 1700C2224.46 1441.48 2140.49 1167.64 2221.06 913.54C2242.41 846.19 2264.75 782.74 2273.44 712.04C2281.99 642.54 2281.62 572.27 2276.78 502.52C2265.08 334.37 2229.84 168.98 2228.5 0Z" fill="url(#paint18_radial)"/>
<path d="M2215.98 0C2213.6 0 2212.39 0 2210 0C2211.43 171.2 2250.25 338.09 2263.07 508.28C2268.38 578.86 2268.75 650.02 2259.3 720.28C2249.59 792.34 2225.26 856.01 2201.39 924C2113.7 1173.69 2205.41 1445.05 2210 1700C2212.38 1700 2213.59 1700 2215.98 1700C2211.55 1443.91 2122.31 1171.66 2207.74 920.55C2230.79 852.77 2254.48 789.18 2263.87 717.56C2273.03 647.55 2272.66 576.69 2267.5 506.38C2255.04 336.86 2217.36 170.47 2215.98 0Z" fill="url(#paint19_radial)"/>
<path d="M2203.07 0C2200.61 0 2199.38 0 2196.92 0C2198.38 172.86 2239.71 340.88 2253.35 512.61C2265.26 662.7 2241.71 792.5 2187.43 931.84C2092.29 1175.96 2191.98 1449.57 2196.92 1700C2199.38 1700 2200.61 1700 2203.07 1700C2198.25 1446.45 2103.66 1176.11 2193.97 928.13C2218.81 859.91 2243.87 796.12 2253.97 723.53C2263.78 652.97 2263.42 581.46 2257.92 510.56C2244.67 339.55 2204.47 172.08 2203.07 0Z" fill="url(#paint20_radial)"/>
<path d="M2189.75 0C2187.21 0 2185.94 0 2183.4 0C2184.88 174.65 2228.85 343.88 2243.3 517.27C2255.96 669.35 2231.31 800.32 2172.99 940.26C2072.72 1180.79 2178.09 1452.47 2183.4 1700.01C2185.94 1700.01 2187.21 1700.01 2189.75 1700.01C2184.59 1451.12 2081.9 1178.49 2179.77 936.28C2236.2 796.61 2260.34 666.2 2248.01 515.07C2233.96 342.46 2191.19 173.8 2189.75 0Z" fill="url(#paint21_radial)"/>
<path d="M2176.02 0C2173.42 0 2172.11 0 2169.5 0C2170.98 176.56 2217.63 347.1 2232.94 522.25C2246.4 676.36 2220.64 808.83 2158.08 949.28C2052.65 1186.02 2163.69 1455.51 2169.51 1700C2172.13 1700 2173.44 1700 2176.03 1700C2170.44 1454.08 2062.06 1183.52 2165.09 945C2225.66 804.79 2250.91 673.04 2237.8 519.88C2222.89 345.58 2177.52 175.65 2176.02 0Z" fill="url(#paint22_radial)"/>
<path d="M2161.88 0C2159.18 0 2157.84 0 2155.14 0C2156.7 178.6 2206.04 350.54 2222.23 527.58C2236.51 683.75 2209.61 818.04 2142.68 958.89C2032.02 1191.8 2148.89 1458.56 2155.14 1700C2157.84 1700 2159.18 1700 2161.88 1700C2155.79 1457.15 2041.68 1189 2149.93 954.34C2214.79 813.67 2241.14 680.26 2227.25 525.05C2211.48 348.91 2163.4 177.64 2161.88 0Z" fill="url(#paint23_radial)"/>
<path d="M2147.29 0C2144.52 0 2143.13 0 2140.36 0C2141.92 180.78 2194.11 354.19 2211.18 533.25C2226.28 691.54 2198.27 827.94 2126.8 969.12C2010.88 1198.08 2133.6 1461.64 2140.36 1700C2143.13 1700 2144.52 1700 2147.29 1700C2140.77 1460.21 2020.79 1195.08 2134.26 964.28C2203.62 823.24 2231.08 687.87 2216.37 530.57C2199.71 352.46 2148.85 179.76 2147.29 0Z" fill="url(#paint24_radial)"/>
<path d="M2132.25 0C2129.4 0 2127.95 0 2125.08 0C2126.66 183.1 2181.78 358.08 2199.75 539.27C2215.67 699.67 2186.64 838.63 2110.38 979.98C1989.09 1204.84 2117.82 1464.84 2125.09 1700C2127.96 1700 2129.41 1700 2132.26 1700C2125.23 1463.34 1999.31 1201.64 2118.1 974.86C2192.1 833.55 2220.66 695.84 2205.13 536.42C2187.56 356.24 2133.83 182 2132.25 0Z" fill="url(#paint25_radial)"/>
<path d="M2116.76 0C2113.79 0 2112.33 0 2109.38 0C2110.98 185.54 2169.07 362.19 2187.99 545.63C2204.75 708.16 2174.61 850.06 2093.44 991.46C1966.72 1212.18 2101.54 1468.02 2109.38 1700C2112.33 1700 2113.79 1700 2116.76 1700C2109.16 1466.54 1977.23 1208.69 2101.39 986.05C2180.26 844.64 2209.89 704.17 2193.52 542.62C2175.04 360.24 2118.36 184.38 2116.76 0Z" fill="url(#paint26_radial)"/>
<path d="M2100.76 0C2097.71 0 2096.19 0 2093.16 0C2094.78 188.12 2155.93 366.51 2175.82 552.34C2193.46 717 2162.23 862.3 2075.94 1003.57C1943.73 1220.05 2084.73 1471.21 2093.17 1700C2096.2 1700 2097.72 1700 2100.77 1700C2092.63 1469.75 1954.52 1216.33 2084.17 997.87C2168.04 856.52 2198.78 712.84 2181.55 549.18C2162.09 364.47 2102.4 186.89 2100.76 0Z" fill="url(#paint27_radial)"/>
<path d="M2084.3 0C2081.16 0 2079.57 0 2076.45 0C2078.07 190.83 2142.41 371.07 2163.3 559.4C2181.8 726.14 2149.45 875.35 2057.89 1016.29C1920.06 1228.48 2067.38 1474.39 2076.45 1700C2079.57 1700 2081.16 1700 2084.3 1700C2075.53 1472.91 1931.18 1224.49 2066.37 1010.29C2155.45 869.17 2187.27 721.84 2169.18 556.07C2148.77 368.93 2085.92 189.55 2084.3 0Z" fill="url(#paint28_radial)"/>
<path d="M2067.3 0C2064.06 0 2062.46 0 2059.21 0C2060.85 193.67 2128.43 375.84 2150.34 566.8C2169.71 735.62 2136.26 889.18 2039.27 1029.61C1893.94 1240 2054.09 1475.41 2059.21 1700C2062.45 1700 2064.05 1700 2067.3 1700C2057.87 1476.07 1907.14 1233.2 2048.02 1023.34C2142.45 882.64 2175.38 731.17 2156.44 563.31C2135.02 373.59 2068.91 192.33 2067.3 0Z" fill="url(#paint29_radial)"/>
<path d="M2049.8 0C2046.46 0 2044.78 0 2041.46 0C2043.06 196.64 2114.06 380.81 2137.01 574.5C2157.26 745.37 2122.67 903.79 2020.06 1043.49C1868.69 1249.56 2035.84 1478.45 2041.47 1699.99C2044.79 1699.99 2046.47 1699.99 2049.81 1699.99C2044.48 1477.02 1880.51 1245.05 2029.09 1036.94C2129.09 896.88 2163.13 740.77 2143.29 570.86C2120.82 378.47 2051.43 195.24 2049.8 0Z" fill="url(#paint30_radial)"/>
<path d="M2031.74 0C2028.3 0 2026.58 0 2023.15 0C2024.79 199.74 2099.22 385.98 2123.27 582.52C2144.4 755.39 2108.62 919.2 2000.24 1057.93C1842.6 1259.75 2017.17 1481.35 2023.15 1700C2026.59 1700 2028.31 1700 2031.74 1700C2025.84 1480.06 1854.88 1254.88 2009.55 1051.15C2115.21 911.93 2150.45 750.69 2129.73 578.75C2106.19 383.54 2033.38 198.28 2031.74 0Z" fill="url(#paint31_radial)"/>
<path d="M2013.13 0C2009.59 0 2007.82 0 2004.28 0C2005.9 202.94 2083.89 391.33 2109.06 590.82C2131.13 765.63 2094.08 935.37 1979.8 1072.87C1815.78 1270.25 1997.65 1484.26 2004.27 1700C2007.8 1700 2009.58 1700 2013.12 1700C2006.83 1482.91 1828.35 1265.29 1989.39 1065.86C2100.91 927.73 2137.36 760.83 2115.72 586.92C2091.09 388.82 2014.75 201.44 2013.13 0Z" fill="url(#paint32_radial)"/>
<path d="M1993.95 0C1990.3 0 1988.46 0 1984.81 0C1986.43 206.27 2068.13 396.83 2094.44 599.38C2117.39 776.1 2079.09 952.23 1958.74 1088.29C1788.1 1281.22 1977.65 1487.04 1984.81 1700.01C1988.46 1700.01 1990.3 1700.01 1993.95 1700.01C1987.07 1485.75 1801.08 1276.1 1968.64 1081.06C2086.14 944.28 2123.86 771.2 2101.32 595.37C2075.51 394.25 1995.59 204.71 1993.95 0Z" fill="url(#paint33_radial)"/>
<path d="M1974.16 0C1970.39 0 1968.52 0 1964.75 0C1966.39 209.68 2051.86 402.47 2079.36 608.14C2103.25 786.7 2063.54 969.74 1937.04 1104.08C1863.04 1182.63 1845.18 1265.02 1871.14 1369.63C1898.56 1480.18 1960.54 1584.32 1964.75 1700C1968.52 1700 1970.39 1700 1974.16 1700C1970.08 1583.32 1909.45 1477.68 1882.64 1365.88C1857.52 1261.06 1874.13 1176.58 1947.23 1096.66C2070.84 961.5 2109.89 781.74 2086.45 604.03C2059.49 399.83 1975.8 208.08 1974.16 0Z" fill="url(#paint34_radial)"/>
<path d="M1953.77 0C1949.88 0 1947.95 0 1944.06 0C1945.66 213.18 2035.08 408.23 2063.83 617.09C2088.65 797.47 2047.4 987.83 1914.65 1120.2C1838.81 1195.82 1818.03 1273.6 1845.86 1377.84C1874.63 1485.63 1939.45 1586.47 1944.06 1700.01C1947.95 1700.01 1949.88 1700.01 1953.77 1700.01C1949.32 1585.46 1885.86 1483.1 1857.71 1373.99C1830.8 1269.6 1850.15 1189.65 1925.15 1112.64C2054.97 979.34 2095.5 792.45 2071.11 612.9C2042.95 405.54 1955.39 211.54 1953.77 0Z" fill="url(#paint35_radial)"/>
<path d="M1932.75 0C1928.75 0 1926.75 0 1922.73 0C1924.37 216.75 2017.79 414.05 2047.81 626.16C2073.61 808.31 2030.68 1006.37 1891.62 1136.52C1814.08 1209.1 1789.96 1282.16 1819.8 1386.11C1849.96 1491.09 1917.83 1588.63 1922.73 1700C1926.75 1700 1928.75 1700 1932.75 1700C1927.96 1587.62 1861.54 1488.55 1832.03 1382.25C1803.14 1278.19 1825.66 1202.89 1902.44 1128.89C2038.55 997.7 2080.66 803.25 2055.33 621.93C2025.92 411.33 1934.38 215.08 1932.75 0Z" fill="url(#paint36_radial)"/>
<path d="M1911.07 0C1906.95 0 1904.88 0 1900.76 0C1902.42 220.37 1999.98 419.9 2031.35 635.29C2058.11 819.19 2013.36 1025.29 1867.89 1152.99C1788.83 1222.4 1760.92 1290.71 1792.97 1394.46C1824.53 1496.57 1895.49 1590.79 1900.76 1700.01C1904.88 1700.01 1906.95 1700.01 1911.07 1700.01C1905.93 1589.78 1836.46 1494.05 1805.56 1390.58C1774.56 1286.75 1800.64 1216.22 1879.02 1145.33C2021.5 1016.46 2065.39 814.14 2039.08 631.05C2008.34 417.18 1912.73 218.68 1911.07 0Z" fill="url(#paint37_radial)"/>
<path d="M1888.75 0C1884.49 0 1882.36 0 1878.11 0C1879.77 224.02 1981.64 425.73 2014.38 644.4C2042.17 830.07 1995.34 1044.37 1843.5 1169.43C1805.38 1200.82 1768.97 1227.05 1755.14 1277.26C1743.64 1319 1751.98 1362.57 1765.34 1402.77C1798.33 1502.01 1872.41 1592.87 1878.11 1700C1882.37 1700 1884.5 1700 1888.75 1700C1883.26 1591.91 1810.63 1499.49 1778.32 1398.91C1765.2 1358.03 1757.07 1313.93 1768.34 1271.61C1781.74 1221.28 1817.17 1193.86 1854.94 1161.79C2003.83 1035.46 2049.65 825.03 2022.34 640.18C1990.27 423.02 1890.41 222.32 1888.75 0Z" fill="url(#paint38_radial)"/>
<path d="M1865.7 0C1861.32 0 1859.12 0 1854.72 0C1856.44 227.68 1962.73 431.48 1996.91 653.43C2025.78 840.88 1976.62 1063.48 1818.37 1185.71C1779.58 1215.67 1740.99 1239.34 1726.16 1289.3C1714.13 1329.79 1723 1372.23 1736.86 1411C1771.27 1507.35 1848.68 1594.93 1854.71 1700C1859.11 1700 1861.31 1700 1865.69 1700C1859.83 1593.98 1783.97 1504.86 1750.22 1407.19C1736.59 1367.76 1727.97 1324.79 1739.75 1283.71C1754.11 1233.63 1791.66 1208.77 1830.14 1178.14C1985.43 1054.59 2033.46 835.85 2005.1 649.23C1971.62 428.82 1867.38 225.98 1865.7 0Z" fill="url(#paint39_radial)"/>
<path d="M1841.95 0C1837.44 0 1835.17 0 1830.64 0C1832.42 231.31 1943.32 437.08 1978.96 662.24C1993.61 754.76 1992.87 849.65 1964.9 939.71C1935.54 1034.22 1874.06 1142.6 1792.56 1201.62C1753.15 1230.19 1712.27 1251.31 1696.35 1301.05C1683.81 1340.33 1693.22 1381.64 1707.56 1419C1743.46 1512.48 1824.18 1596.89 1830.65 1700C1835.18 1700 1837.45 1700 1841.96 1700C1835.71 1596 1756.53 1510.1 1721.33 1415.31C1707.21 1377.28 1698.05 1335.45 1710.35 1295.62C1725.74 1245.78 1765.54 1223.47 1804.67 1194.27C1966.33 1073.61 2016.86 846.58 1987.38 658.16C1952.42 434.51 1843.67 229.61 1841.95 0Z" fill="url(#paint40_radial)"/>
<path d="M1817.48 0C1812.81 0 1810.49 0 1805.82 0C1807.64 234.86 1923.26 442.46 1960.49 670.73C1975.78 764.48 1974.94 860.7 1945.82 951.81C1915.29 1047.28 1850.53 1159.56 1766.04 1216.99C1726 1244.22 1682.76 1262.85 1665.69 1312.36C1652.56 1350.46 1662.58 1390.7 1677.41 1426.7C1714.73 1517.36 1798.95 1598.73 1805.83 1700C1810.5 1700 1812.82 1700 1817.49 1700C1810.83 1597.89 1728.23 1515.12 1691.57 1423.16C1676.96 1386.54 1667.23 1345.8 1680.09 1307.16C1696.61 1257.53 1738.74 1237.77 1778.51 1209.91C1861.6 1151.73 1924.82 1041.26 1954.78 946.24C1983.37 855.6 1984.15 760 1969.17 666.82C1932.68 439.99 1819.3 233.22 1817.48 0Z" fill="url(#paint41_radial)"/>
<path d="M1792.25 0C1787.45 0 1785.02 0 1780.22 0C1782.17 238.33 1902.66 447.51 1941.53 678.77C1957.47 773.7 1956.55 871.19 1926.24 963.3C1894.5 1059.75 1826.2 1175.78 1738.8 1231.58C1698.15 1257.52 1652.45 1273.73 1634.17 1323.04C1620.46 1360.05 1631.06 1399.25 1646.36 1433.94C1685.13 1521.87 1773 1600.44 1780.23 1699.99C1785.04 1699.99 1787.46 1699.99 1792.26 1699.99C1785.19 1599.68 1699.06 1519.81 1660.93 1430.62C1645.87 1395.35 1635.54 1355.66 1648.98 1318.16C1666.68 1268.75 1711.23 1251.42 1751.6 1224.9C1837.65 1168.34 1904.26 1054.02 1935.43 958.04C1965.2 866.39 1966.07 769.48 1950.45 675.08C1912.32 445.21 1794.1 236.73 1792.25 0Z" fill="url(#paint42_radial)"/>
<path d="M1766.23 0C1761.27 0 1758.79 0 1753.83 0C1755.88 241.63 1881.43 452.15 1922.01 686.2C1938.67 782.21 1937.65 880.92 1906.13 973.92C1873.1 1071.34 1801.11 1190.89 1710.84 1245.05C1669.57 1269.82 1621.33 1283.72 1601.74 1332.86C1587.4 1368.86 1598.67 1407.12 1614.42 1440.57C1654.62 1525.96 1746.18 1601.94 1753.83 1699.98C1758.79 1699.98 1761.27 1699.98 1766.23 1699.98C1758.71 1601.25 1668.96 1524.14 1629.41 1437.56C1613.86 1403.54 1602.91 1364.85 1616.95 1328.4C1635.91 1279.18 1682.98 1264.2 1723.96 1238.91C1812.91 1183.99 1883.12 1066.04 1915.56 969.09C1946.52 876.49 1947.47 778.33 1931.17 682.81C1891.41 450.05 1768.24 240.12 1766.23 0Z" fill="url(#paint43_radial)"/>
<path d="M1739.41 0C1734.29 0 1731.73 0 1726.62 0C1728.83 244.75 1859.63 456.23 1902.01 692.83C1919.39 789.84 1918.28 889.61 1885.53 983.42C1851.15 1081.9 1775.24 1204.57 1682.17 1257.17C1640.24 1280.86 1589.4 1292.6 1568.46 1341.6C1553.46 1376.7 1565.37 1414.14 1581.58 1446.48C1623.2 1529.55 1718.49 1603.2 1726.62 1700C1731.74 1700 1734.29 1700 1739.41 1700C1731.48 1602.66 1637.96 1527.97 1596.99 1443.85C1580.99 1411 1569.39 1373.19 1584.08 1337.68C1604.39 1288.64 1654 1275.9 1695.6 1251.72C1787.38 1198.42 1861.44 1077.13 1895.19 979.14C1927.36 885.7 1928.43 786.42 1911.4 689.85C1869.86 454.4 1741.52 243.32 1739.41 0Z" fill="url(#paint44_radial)"/>
<path d="M1711.76 0C1706.49 0 1703.85 0 1698.58 0C1700.96 247.59 1837.19 459.64 1881.49 698.47C1899.63 796.32 1898.44 897.07 1864.44 991.51C1843.52 1049.6 1811.57 1103.07 1773.27 1151.35C1741.1 1191.9 1700.61 1244.71 1652.78 1267.5C1609.81 1287.99 1556.08 1301.17 1534.26 1348.93C1518.58 1383.3 1531.15 1420 1547.81 1451.39C1590.82 1532.41 1690.1 1604.18 1698.57 1700C1703.84 1700 1706.48 1700 1711.75 1700C1703.45 1603.77 1606.03 1531.15 1563.64 1449.24C1547.2 1417.42 1534.95 1380.39 1550.3 1345.71C1571.45 1297.92 1623.89 1283.87 1666.55 1262.94C1713.64 1239.81 1753.23 1187.55 1784.81 1147.16C1822.49 1098.96 1853.81 1045.68 1874.32 987.94C1907.72 893.78 1908.87 793.47 1891.1 695.99C1847.75 458.13 1714.06 246.31 1711.76 0Z" fill="url(#paint45_radial)"/>
<path d="M1683.24 0C1677.81 0 1675.1 0 1669.67 0C1672.31 250.11 1814.14 462.17 1860.43 702.86C1879.38 801.4 1878.13 902.93 1842.85 997.83C1821.01 1056.6 1787.69 1110.41 1748.04 1158.83C1714.54 1199.71 1672.1 1253.5 1622.69 1275.67C1537.92 1313.7 1455.03 1351.35 1513.1 1455.12C1557.49 1534.47 1660.79 1604.77 1669.66 1700C1675.09 1700 1677.8 1700 1683.23 1700C1674.56 1604.55 1573.13 1533.61 1529.38 1453.54C1512.47 1422.6 1499.58 1386.21 1515.63 1352.19C1538.17 1304.42 1593.4 1292.17 1636.78 1272.17C1685.45 1249.71 1727 1196.35 1759.85 1155.63C1798.87 1107.25 1831.57 1053.58 1852.95 995.12C1887.62 900.41 1888.85 799.23 1870.29 700.98C1824.98 461.09 1685.8 248.98 1683.24 0Z" fill="url(#paint46_radial)"/>
<path d="M1653.85 0C1648.26 0 1645.45 0 1639.85 0C1642.82 252.21 1790.46 463.69 1838.87 705.75C1858.67 804.77 1857.33 906.89 1820.8 1002.05C1798.01 1061.41 1763.28 1115.43 1722.27 1163.85C1687.37 1205.08 1642.91 1259.53 1591.92 1281.17C1547.27 1300.12 1487.84 1310.13 1463.21 1358.12C1446.04 1391.56 1459.87 1427.32 1477.47 1457.38C1523.21 1535.51 1630.75 1604.96 1639.85 1700C1645.46 1700 1648.27 1700 1653.85 1700C1644.88 1604.94 1539.3 1535.14 1494.2 1456.52C1476.82 1426.23 1463.28 1390.33 1480.08 1356.75C1504.04 1308.86 1562.13 1298.2 1606.35 1278.96C1656.6 1257.09 1700.12 1202.91 1734.34 1161.85C1774.73 1113.41 1808.79 1059.47 1831.14 1000.37C1867.08 905.29 1868.39 803.45 1848.99 704.61C1801.58 463.12 1656.68 251.29 1653.85 0Z" fill="url(#paint47_radial)"/>
<path d="M1623.57 0C1617.79 0 1614.9 0 1609.12 0C1612.46 253.82 1766.13 463.97 1816.79 706.84C1837.49 806.11 1836.09 908.54 1798.28 1003.7C1774.51 1063.54 1738.32 1117.64 1695.96 1165.93C1659.49 1207.51 1613.05 1262.28 1560.47 1283.49C1475.72 1317.67 1376.1 1351.36 1440.88 1457.94C1487.99 1535.46 1599.75 1604.56 1609.12 1700.01C1614.9 1700.01 1617.79 1700.01 1623.57 1700.01C1614.29 1604.81 1504.51 1535.65 1458.04 1457.92C1394.82 1352.14 1490.56 1317.76 1575.19 1282.84C1627.03 1261.45 1672.55 1206.79 1708.28 1165.36C1750.02 1117 1785.51 1062.92 1808.83 1003.29C1846.06 908.09 1847.42 805.77 1827.15 706.59C1777.56 464.01 1626.7 253.13 1623.57 0Z" fill="url(#paint48_radial)"/>
<path d="M1592.32 0C1586.36 0 1583.39 0 1577.44 0C1581.23 254.83 1741.17 462.8 1794.22 705.77C1815.88 804.98 1814.42 907.46 1775.33 1002.3C1750.53 1062.48 1712.83 1116.48 1669.12 1164.47C1630.96 1206.37 1582.52 1261.11 1528.36 1282.01C1442.93 1314.94 1335.43 1347.69 1403.32 1456.42C1451.78 1534 1567.99 1603.53 1577.44 1699.99C1583.4 1699.99 1586.37 1699.99 1592.32 1699.99C1582.89 1604.07 1468.77 1534.85 1420.93 1457.39C1354.46 1349.73 1458.37 1316.65 1543.39 1283.19C1596.81 1262.17 1644.33 1207.35 1681.67 1165.61C1724.76 1117.44 1761.75 1063.4 1786.06 1003.34C1824.56 908.32 1826 805.81 1804.79 706.53C1752.87 463.55 1595.88 254.43 1592.32 0Z" fill="url(#paint49_radial)"/>
<path d="M1560.12 0C1553.99 0 1550.92 0 1544.79 0C1549.13 255.14 1715.53 459.91 1771.16 702.16C1793.84 800.98 1792.33 903.13 1751.96 997.33C1726.08 1057.7 1686.84 1111.37 1641.8 1158.87C1601.78 1201.06 1551.39 1255.29 1495.63 1276.04C1408.75 1308.32 1294.05 1340.94 1364.81 1452.46C1414.65 1531.02 1535.34 1601.72 1544.79 1700C1550.92 1700 1553.99 1700 1560.12 1700C1550.67 1602.68 1432.05 1532.62 1382.87 1454.63C1313.42 1344.51 1424.86 1311.96 1510.96 1279.42C1565.98 1258.64 1615.47 1204.11 1654.59 1162.06C1699.02 1114.31 1737.52 1060.44 1762.89 1000.15C1802.68 905.6 1804.16 803.24 1781.95 704.2C1727.56 461.48 1564.2 255.1 1560.12 0Z" fill="url(#paint50_radial)"/>
<path d="M1526.93 0C1520.6 0 1517.44 0 1511.11 0C1516.13 254.63 1689.25 454.99 1747.59 695.58C1771.36 793.58 1769.82 895 1728.18 988.15C1701.21 1048.48 1660.37 1101.63 1614 1148.4C1571.97 1190.8 1519.66 1244.06 1462.3 1264.79C1372.96 1297.05 1252.01 1330.57 1325.31 1445.65C1376.62 1526.2 1501.78 1598.97 1511.11 1700.01C1517.44 1700.01 1520.6 1700.01 1526.93 1700.01C1517.52 1600.38 1394.45 1528.68 1343.84 1449.21C1271.67 1335.91 1389.84 1302.94 1477.9 1270.73C1534.5 1250.03 1585.93 1196.26 1627 1153.93C1672.76 1106.8 1712.84 1053.36 1739.3 992.99C1780.34 899.3 1781.88 797.48 1758.62 699.04C1701.58 457.56 1531.62 254.98 1526.93 0Z" fill="url(#paint51_radial)"/>
<path d="M1492.71 0C1486.19 0 1482.91 0 1476.38 0C1482.2 253.13 1662.3 447.74 1723.59 685.51C1748.53 782.24 1746.97 882.44 1704.08 974.03C1675.92 1034.13 1633.46 1086.43 1585.82 1132.23C1541.54 1174.77 1487.38 1226.51 1428.44 1247.41C1335.37 1280.38 1209.46 1315.95 1284.87 1435.52C1314.62 1482.69 1356.35 1521.79 1393.29 1563.18C1427.08 1601.07 1471.79 1646.62 1476.39 1700.02C1482.91 1700.02 1486.2 1700.02 1492.72 1700.02C1488.03 1647.62 1443.97 1602.99 1410.69 1565.86C1374.3 1525.29 1333.19 1486.95 1303.83 1440.7C1229.36 1323.36 1353.13 1288.88 1444.28 1256.34C1502.5 1235.56 1555.8 1183.04 1599.01 1140.54C1646.06 1094.23 1687.76 1041.52 1715.36 981.26C1757.66 888.9 1759.25 788.06 1734.85 690.67C1674.94 451.45 1498.11 253.96 1492.71 0Z" fill="url(#paint52_radial)"/>
<path d="M1457.42 0C1450.7 0 1447.34 0 1440.6 0C1447.38 250.52 1634.68 437.8 1699.15 671.41C1725.36 766.32 1723.74 864.74 1679.64 954.2C1650.27 1013.79 1606.09 1064.92 1557.24 1109.45C1510.54 1152.01 1454.58 1201.62 1394.04 1222.87C1295.8 1257.36 1166.44 1296.4 1243.46 1421.5C1273.97 1471.07 1317.11 1512.3 1355.2 1555.89C1390.26 1595.97 1436.25 1644.02 1440.61 1699.99C1447.35 1699.99 1450.71 1699.99 1457.43 1699.99C1452.96 1645.3 1407.53 1598.51 1373.07 1559.54C1335.53 1517.08 1293.03 1476.9 1262.88 1428.54C1186.56 1306.14 1314.5 1268.93 1410.14 1235.24C1469.95 1214.19 1525.06 1163.5 1570.61 1120.92C1618.91 1075.76 1662.27 1024.04 1691.06 964.18C1734.62 873.65 1736.22 774.34 1710.61 678.5C1647.64 442.8 1463.71 251.89 1457.42 0Z" fill="url(#paint53_radial)"/>
<path d="M1421.05 0C1414.12 0 1410.66 0 1403.73 0C1411.62 246.59 1606.43 424.77 1674.32 652.65C1701.86 745.11 1700.24 841.07 1654.96 927.8C1624.28 986.55 1578.36 1036.14 1528.36 1079.07C1479.04 1121.41 1421.29 1168.31 1359.22 1190.13C1254.12 1227.04 1123.05 1271.32 1201.11 1403.08C1232.29 1455.72 1276.88 1499.82 1316.14 1546.28C1352.57 1589.4 1399.72 1640.73 1403.74 1700.01C1410.67 1700.01 1414.13 1700.01 1421.06 1700.01C1416.88 1642.37 1370.24 1592.67 1334.48 1551.08C1295.75 1506.06 1251.84 1463.37 1220.97 1412.27C1143.31 1283.75 1273.84 1242.15 1375.52 1206.49C1436.89 1184.97 1493.8 1136.71 1541.87 1094.24C1591.36 1050.53 1636.44 1000.16 1666.5 940.98C1711.25 852.89 1712.87 755.71 1685.95 662.02C1619.67 431.25 1428.4 248.6 1421.05 0Z" fill="url(#paint54_radial)"/>
<path d="M1383.55 0C1376.4 0 1372.83 0 1365.68 0C1374.96 241.16 1577.48 408.19 1649.1 628.53C1678.12 717.82 1676.44 810.55 1630.06 893.79C1569.34 1002.79 1440.82 1106.39 1324.03 1147.87C1262.27 1169.8 1179.81 1186.33 1143.97 1248.63C1119.09 1291.89 1135.12 1339.12 1157.81 1379.49C1189.53 1435.94 1235.48 1483.96 1276.06 1533.96C1314.13 1580.86 1362.15 1636.75 1365.69 1700C1372.84 1700 1376.41 1700 1383.56 1700C1379.81 1638.79 1332.19 1584.96 1294.87 1540.06C1254.83 1491.9 1209.58 1445.71 1178.11 1391.15C1155.8 1352.48 1139.65 1306.97 1164 1265.25C1199.32 1204.72 1280.38 1190.04 1340.47 1168.82C1456.64 1127.82 1583.03 1019.29 1641.68 910.64C1687.56 825.67 1689.22 731.34 1660.9 640.47C1591.04 416.39 1392.17 243.9 1383.55 0Z" fill="url(#paint55_radial)"/>
<path d="M1344.9 0C1337.54 0 1333.85 0 1326.46 0C1337.44 233.97 1547.93 387.64 1623.55 598.25C1707.07 830.85 1491.5 1021.11 1288.53 1094.74C1222.77 1118.59 1137.38 1139.99 1100.49 1206.62C1074.36 1253.81 1090.1 1305.37 1113.6 1350.04C1172.9 1462.77 1320.6 1565.31 1326.46 1700C1333.84 1700 1337.54 1700 1344.9 1700C1341.64 1634.16 1293.18 1575.64 1254.24 1526.17C1213.03 1473.81 1166.31 1423.4 1134.32 1364.55C1111.21 1321.99 1095.31 1272.58 1120.84 1227.32C1157.25 1162.81 1241.29 1143.84 1305.1 1120.95C1422.54 1078.82 1553.44 981.4 1616.72 872.14C1663.65 791.1 1665.35 700.43 1635.49 613.18C1561.8 397.73 1355.02 237.56 1344.9 0Z" fill="url(#paint56_radial)"/>
<path d="M1305.04 0C1297.44 0 1293.65 0 1286.05 0C1299.06 224.73 1517.77 362.62 1597.71 560.96C1691.56 793.84 1442.77 958.19 1252.81 1029.18C1182.48 1055.47 1094.16 1083.28 1056.36 1154.96C1028.9 1207.03 1044.22 1263.89 1068.52 1313.89C1131.89 1444.26 1271.82 1549.28 1286.06 1700C1293.66 1700 1297.45 1700 1305.05 1700C1299.89 1559.1 1149.8 1450.7 1089.65 1331.62C1065.72 1284.24 1050.19 1229.98 1077.01 1180.31C1114.4 1111.09 1201.37 1086.46 1269.5 1061.38C1466.1 989 1698.6 812.35 1609.79 579.27C1531.88 374.86 1317.07 229.32 1305.04 0Z" fill="url(#paint57_radial)"/>
<path d="M1263.96 0C1256.13 0 1252.2 0 1244.37 0C1259.92 213.01 1487.12 332.71 1571.63 515.63C1677.72 745.36 1388.64 882.81 1217 949.41C1141.39 978.75 1050.24 1014.8 1011.62 1092.28C982.81 1150.09 997.23 1213.88 1022.56 1270.05C1087.86 1414.89 1231.5 1535.13 1244.37 1699.99C1252.2 1699.99 1256.13 1699.99 1263.96 1699.99C1250.45 1542.16 1108.68 1429.03 1044.09 1291.49C1019.16 1238.4 1004.41 1177.88 1032.55 1122.94C1070.8 1048.27 1160.65 1016.3 1233.71 988.47C1414.63 919.53 1683.95 769.56 1583.81 537.82C1501.46 347.29 1278.22 218.81 1263.96 0Z" fill="url(#paint58_radial)"/>
<path d="M1221.6 0C1213.53 0 1209.49 0 1201.41 0C1220.17 198.6 1455.79 298.51 1544.84 462.72C1664.72 683.79 1329.74 796.27 1182.15 856.16C1100.56 889.28 1007.4 935.41 967.768 1019.24C937.228 1083.85 951.108 1155.47 976.948 1219.04C1042.96 1381.5 1190.3 1518.4 1201.41 1700C1209.49 1700 1213.53 1700 1221.6 1700C1209.51 1526.23 1063.6 1397.3 997.698 1243.18C971.988 1183.04 957.878 1115.29 987.528 1053.8C1026.55 972.9 1119.19 931.59 1197.89 900.34C1357.14 837.12 1671.1 713.7 1557.63 487.77C1470.66 314.62 1238.71 205.54 1221.6 0Z" fill="url(#paint59_radial)"/>
<path d="M1177.93 0C1169.61 0 1165.45 0 1157.12 0C1182.04 191.48 1412.25 284.77 1503.54 441.54C1626.59 652.85 1305.98 757.46 1166.28 818.08C1083.49 854 993.349 905.6 953.529 990.81C922.269 1057.7 932.449 1132.02 955.819 1199.58C1014.4 1368.9 1152.46 1514.54 1157.12 1699.99C1165.45 1699.99 1169.61 1699.99 1177.93 1699.99C1170.39 1516.24 1028.02 1374.56 966.039 1208.33C941.509 1142.55 929.669 1069.44 960.639 1003.58C1000.44 918.97 1091.96 869.87 1174.27 835.23C1317.48 774.96 1644.98 666.84 1523.24 451.06C1432.91 290.97 1200.08 194.73 1177.93 0Z" fill="url(#paint60_radial)"/>
<path d="M1132.92 0C1124.34 0 1120.05 0 1111.46 0C1127.72 99.39 1208.9 169.43 1279.61 234.7C1342.4 292.69 1413.09 349.57 1458.48 423.11C1583.29 625.34 1278.71 723.27 1145.55 784.84C1062.21 823.38 975.119 879.99 935.469 966.18C903.719 1035.18 910.759 1111.8 931.699 1182.78C983.369 1357.9 1112.27 1511.39 1111.46 1700.01C1120.04 1700.01 1124.33 1700.01 1132.92 1700.01C1131.29 1512.78 998.139 1362.82 943.319 1190.28C921.249 1120.83 912.809 1045.24 944.369 977.17C984.139 891.41 1072.66 837.06 1155.82 799.72C1291.86 738.65 1604.12 637.71 1479.94 431.36C1434.88 356.46 1363.69 298.37 1300.6 239.28C1229.45 172.62 1147.9 101.04 1132.92 0Z" fill="url(#paint61_radial)"/>
<path d="M1086.51 0C1077.66 0 1073.24 0 1064.38 0C1099.05 178.97 1316.09 262.57 1409.57 407.49C1534.69 601.43 1247.7 693.67 1119.83 756.56C1036.53 797.53 952.64 858.61 913.48 945.39C881.48 1016.29 885.91 1094.84 904.49 1168.65C949.78 1348.55 1069.74 1508.9 1064.38 1700C1073.24 1700 1077.66 1700 1086.51 1700C1089.83 1509.96 965.76 1352.7 917.55 1174.88C897.88 1102.34 892.31 1024.63 924.21 954.59C963.64 868.04 1049.04 808.97 1132.44 769.11C1262.59 706.89 1558.02 612.1 1432.84 414.41C1387.21 342.35 1317.21 286.69 1254.79 229.88C1184.68 166.04 1104.08 97.6 1086.51 0Z" fill="url(#paint62_radial)"/>
<path d="M1038.66 0C1029.54 0 1024.98 0 1015.86 0C1053.17 171.26 1259.16 253.15 1353.42 389.89C1477.72 570.24 1235.82 661.43 1107.45 723.55C1015.15 768.21 923.098 839.8 883.838 937.2C854.598 1009.74 858.688 1089 875.598 1163.92C916.398 1344.84 1024.91 1509.53 1015.86 1699.99C1024.98 1699.99 1029.54 1699.99 1038.66 1699.99C1046.11 1510.28 933.668 1348.06 890.238 1168.8C872.328 1094.87 867.238 1016.28 896.458 944.45C936.148 846.88 1030.16 777.64 1122.75 733.89C1252.83 672.43 1503.79 579.19 1378.53 395.39C1284.06 256.79 1074.55 173.65 1038.66 0Z" fill="url(#paint63_radial)"/>
<path d="M989.338 0C979.938 0 975.238 0 965.828 0C1005.47 166.6 1203.4 246.7 1296.56 380.21C1417.71 553.8 1196.11 641.23 1070.72 705.18C979.558 751.67 891.868 827.83 853.758 924.61C824.688 998.42 826.938 1078.79 841.818 1155.49C877.428 1339.22 977.728 1508.44 965.828 1700C975.228 1700 979.928 1700 989.338 1700C1000.02 1508.87 895.928 1341.6 857.958 1159.06C842.168 1083.14 839.098 1003.24 868.278 930C906.978 832.87 996.738 758.74 1088.5 713.09C1215.19 650.06 1446.34 561 1323.55 384.36C1229.79 249.45 1028.05 168.71 989.338 0Z" fill="url(#paint64_radial)"/>
<path d="M938.489 0C928.799 0 923.949 0 914.259 0C955.249 163.11 1145.04 241.21 1235.65 373.4C1268.95 421.96 1286.49 476.94 1257.49 532C1212.15 618.07 1108.01 649.28 1028.67 692.04C852.609 786.93 772.399 956.01 804.789 1149.82C835.799 1335.35 928.279 1508.06 914.259 1700C923.949 1700 928.799 1700 938.489 1700C951.629 1508.16 855.539 1336.91 822.459 1152.11C787.499 956.88 871.268 790.8 1048.94 697.51C1173.05 632.34 1383.4 546.56 1264.55 376.21C1172.32 244.01 978.919 164.38 938.489 0Z" fill="url(#paint65_radial)"/>
<path d="M886.058 0C876.068 0 871.068 0 861.078 0C902.188 159.61 1082.79 238.69 1170.61 369.47C1202.7 417.25 1220.58 471.63 1194.01 526.24C1153.23 610.05 1056.06 641.3 981.248 684.09C809.568 782.29 736.958 956.74 764.478 1146.91C791.448 1333.3 876.478 1508.39 861.078 1700C871.068 1700 876.068 1700 886.058 1700C900.908 1508.16 812.468 1334.04 783.678 1147.93C753.978 955.98 830.128 783.84 1004.01 687.16C1080.89 644.41 1181.33 613.27 1224.21 528.43C1251.91 473.63 1234.09 419.02 1201.44 370.95C1112.2 239.62 927.288 161.16 886.058 0Z" fill="url(#paint66_radial)"/>
<path d="M832.02 0C821.72 0 816.57 0 806.27 0C846.47 156.71 1017.3 238.07 1101.45 368.36C1132.18 415.95 1149.86 470.1 1125.58 524.47C1089.11 606.18 999.13 638.1 928.5 681.24C762.49 782.6 697.46 960.84 720.91 1146.72C744.44 1333.01 822.39 1509.46 806.27 1700C816.57 1700 821.72 1700 832.02 1700C847.9 1508.87 766.7 1332.93 741.63 1146.48C716.36 958.53 784.94 781.83 953.74 681.94C1026.29 639.01 1119.64 607.48 1158.1 524.81C1183.43 470.35 1165.59 416.14 1134.2 368.53C1048.23 238.12 872.79 157.99 832.02 0Z" fill="url(#paint67_radial)"/>
<path d="M776.309 0C765.689 0 760.369 0 749.759 0C788.069 154.38 948.569 239.35 1028.15 369.96C1057.35 417.9 1074.3 472.2 1052.21 526.54C1019.79 606.3 937.219 639.5 870.499 683.29C711.429 787.69 653.989 968.12 674.089 1149.14C694.689 1334.45 765.959 1511.19 749.749 1700C760.369 1700 765.679 1700 776.299 1700C792.559 1510.29 718.199 1333.57 696.309 1147.7C674.719 964.36 735.699 784.73 898.169 681.74C966.699 638.31 1052.74 605.76 1087.02 525.11C1110.11 470.78 1092.76 416.59 1062.82 368.89C981.009 238.52 815.629 155.4 776.309 0Z" fill="url(#paint68_radial)"/>
<path d="M718.869 0C707.919 0 702.439 0 691.499 0C727.089 152.56 876.609 242.44 950.759 374.13C978.229 422.92 994.039 477.68 973.989 532.24C945.359 610.16 870.389 645.15 807.399 689.98C458.859 938.07 719.519 1366.99 691.489 1700C702.439 1700 707.919 1700 718.859 1700C734.849 1512.4 667.029 1335.9 647.779 1151.45C629.189 973.25 682.579 792.31 837.419 686.31C902.139 642.01 980.659 607.91 1011.02 529.14C1032.01 474.72 1015.62 420.21 987.319 371.88C910.549 240.78 755.809 153.34 718.869 0Z" fill="url(#paint69_radial)"/>
<path d="M659.658 0C648.368 0 642.728 0 631.438 0C663.598 151.24 801.418 247.24 869.358 380.65C894.858 430.72 909.198 486.24 891.068 541.25C865.958 617.41 798.688 654.66 739.418 700.91C417.728 951.97 657.438 1374.26 631.438 1700C642.728 1700 648.368 1700 659.658 1700C686.708 1370.82 437.278 944.98 771.688 695.31C832.698 649.76 903.558 613.63 930.278 536.65C949.288 481.88 934.228 426.76 907.778 377.33C836.858 244.79 693.488 151.8 659.658 0Z" fill="url(#paint70_radial)"/>
<path d="M598.598 0C586.968 0 581.148 0 569.508 0C597.738 150.37 723.048 253.58 784.078 389.26C807.338 440.97 819.998 497.49 803.648 553.21C781.808 627.64 722.268 667.54 666.868 715.58C373.798 969.79 592.748 1381.9 569.508 1700C581.148 1700 586.968 1700 598.598 1700C623.228 1378.3 394.598 961.04 701.228 708.31C758.458 661.14 821.598 622.53 844.938 547.29C862.108 491.94 848.638 435.91 824.298 385.01C759.968 250.44 628.728 150.71 598.598 0Z" fill="url(#paint71_radial)"/>
<path d="M535.669 0C523.669 0 517.669 0 505.669 0C529.659 149.94 641.589 261.25 695.119 399.57C715.869 453.2 726.689 510.92 712.039 567.58C693.239 640.29 641.359 683.18 590.159 733.35C327.449 990.82 525.549 1389.71 505.669 1700C517.669 1700 523.669 1700 535.669 1700C557.179 1386.05 349.339 980.68 626.399 724.73C679.609 675.58 735.049 634.13 755.249 560.62C770.679 504.43 758.989 447.29 737.029 394.58C679.949 257.53 561.679 150.09 535.669 0Z" fill="url(#paint72_radial)"/>
<path d="M470.789 0C458.429 0 452.229 0 439.869 0C459.799 151.78 559.629 272.77 604.349 416.28C622.009 472.94 629.739 532.76 614.889 591C596.299 663.91 546.999 707.98 501.459 764.12C285.179 1030.82 455.929 1396.91 439.869 1700C452.229 1700 458.419 1700 470.789 1700C488.639 1393.2 308.069 1020.47 538.709 754.6C586.649 699.35 639.569 656.95 659.709 583.18C675.439 525.57 666.939 466.37 647.969 410.67C599.539 268.49 492.789 151.73 470.789 0Z" fill="url(#paint73_radial)"/>
<path d="M403.899 0C391.149 0 384.769 0 372.029 0C387.539 152.25 471.879 282.29 508.529 428.76C523.229 487.51 529.309 548.7 516.349 608.4C500.949 679.41 459.339 727.28 419.489 785.36C235.199 1054.04 384.049 1404.35 372.019 1700C384.759 1700 391.139 1700 403.889 1700C417.819 1401 258.609 1043.11 458.009 775.37C500.599 718.19 545.769 672.12 562.649 600.21C576.489 541.22 569.649 480.66 553.549 422.89C513.129 277.82 421.439 151.96 403.899 0Z" fill="url(#paint74_radial)"/>
<path d="M334.948 0C321.798 0 315.228 0 302.078 0C313.388 153.15 381.428 291.82 409.968 441.31C421.578 502.12 426.058 564.63 415.098 625.9C402.758 694.91 368.738 746.76 335.398 806.71C184.698 1077.74 310.188 1410.72 302.078 1700C315.228 1700 321.808 1700 334.948 1700C344.858 1407.93 208.238 1066.72 374.808 796.84C411.288 737.74 448.828 687.75 462.588 617.8C474.488 557.27 469.278 495.37 456.208 435.51C423.898 287.41 348.168 152.68 334.948 0Z" fill="url(#paint75_radial)"/>
<path d="M263.859 0C250.309 0 243.539 0 229.979 0C237.449 154.44 288.559 300.7 309.179 453.13C317.659 515.81 320.639 579.52 311.859 642.35C302.489 709.33 276.289 765.33 250.139 826.72C133.899 1099.64 234.479 1416.18 229.979 1699.99C243.539 1699.99 250.309 1699.99 263.859 1699.99C269.999 1413.49 157.879 1090.15 289.959 817.66C319.439 756.82 349.419 702.85 360.179 634.89C370.009 572.78 366.339 509.61 356.409 447.77C332.119 296.69 273.049 153.81 263.859 0Z" fill="url(#paint76_radial)"/>
<path d="M190.569 0C176.599 0 169.609 0 155.639 0C159.789 155.91 193.679 308.23 206.739 463.28C218.039 597.43 200.909 715.12 164.859 843.75C87.169 1120.92 157.269 1418.11 155.639 1700C169.619 1700 176.599 1700 190.569 1700C193.469 1416.76 109.479 1112.38 204.529 836.31C225.959 774.04 248.419 716.36 256.229 650.26C263.739 586.66 261.469 522.39 254.649 458.83C238.119 304.94 196.209 155.22 190.569 0Z" fill="url(#paint77_radial)"/>
<path d="M115.019 0C100.619 0 93.4192 0 79.0092 0C80.5892 157.23 97.2392 313.59 103.399 470.63C108.519 601.18 99.1492 726.7 80.9392 855.79C41.5592 1134.89 78.9492 1419.73 79.0092 1700.01C93.4092 1700.01 100.609 1700.01 115.019 1700.01C115.549 1419.17 62.3992 1129.25 119.789 850.95C146.389 721.94 159.519 599.73 151.629 467.64C142.299 311.43 117.699 156.65 115.019 0Z" fill="url(#paint78_radial)"/>
<path d="M37.1289 0C22.2689 0 14.8489 0 0.00888889 0C0.00888889 566.67 -0.0111111 1133.34 0.00888889 1700C14.8489 1700 22.2789 1700 37.1289 1700C36.8489 1420.06 18.7989 1139.04 37.2489 859.37C56.1689 572.29 38.2189 287.26 37.1289 0Z" fill="url(#paint79_radial)"/>
<defs>
<radialGradient id="paint0_radial" cx="0" cy="0" r="1" gradientUnits="userSpaceOnUse" gradientTransform="translate(2397.75 850) rotate(90) scale(850 1.78277)">
<stop/>
<stop offset="1" stop-opacity="0.16"/>
</radialGradient>
<radialGradient id="paint1_radial" cx="0" cy="0" r="1" gradientUnits="userSpaceOnUse" gradientTransform="translate(2390.48 850) rotate(90) scale(850 1.89813)">
<stop/>
<stop offset="1" stop-opacity="0.16"/>
</radialGradient>
<radialGradient id="paint2_radial" cx="0" cy="0" r="1" gradientUnits="userSpaceOnUse" gradientTransform="translate(2382.26 850) rotate(90) scale(850 7.12514)">
<stop/>
<stop offset="1" stop-opacity="0.16"/>
</radialGradient>
<radialGradient id="paint3_radial" cx="0" cy="0" r="1" gradientUnits="userSpaceOnUse" gradientTransform="translate(2374.41 850) rotate(90) scale(850 8.95129)">
<stop/>
<stop offset="1" stop-opacity="0.16"/>
</radialGradient>
<radialGradient id="paint4_radial" cx="0" cy="0" r="1" gradientUnits="userSpaceOnUse" gradientTransform="translate(2366.28 850) rotate(90) scale(850 10.8309)">
<stop/>
<stop offset="1" stop-opacity="0.16"/>
</radialGradient>
<radialGradient id="paint5_radial" cx="0" cy="0" r="1" gradientUnits="userSpaceOnUse" gradientTransform="translate(2357.91 850) rotate(90) scale(850 12.7587)">
<stop/>
<stop offset="1" stop-opacity="0.16"/>
</radialGradient>
<radialGradient id="paint6_radial" cx="0" cy="0" r="1" gradientUnits="userSpaceOnUse" gradientTransform="translate(2349.28 850) rotate(90) scale(850 14.7523)">
<stop/>
<stop offset="1" stop-opacity="0.16"/>
</radialGradient>
<radialGradient id="paint7_radial" cx="0" cy="0" r="1" gradientUnits="userSpaceOnUse" gradientTransform="translate(2342.86 850) rotate(90) scale(850 19.2855)">
<stop/>
<stop offset="1" stop-opacity="0.16"/>
</radialGradient>
<radialGradient id="paint8_radial" cx="0" cy="0" r="1" gradientUnits="userSpaceOnUse" gradientTransform="translate(2334.01 850) rotate(90) scale(850 21.742)">
<stop/>
<stop offset="1" stop-opacity="0.16"/>
</radialGradient>
<radialGradient id="paint9_radial" cx="0" cy="0" r="1" gradientUnits="userSpaceOnUse" gradientTransform="translate(2324.9 850) rotate(90) scale(850 24.2551)">
<stop/>
<stop offset="1" stop-opacity="0.16"/>
</radialGradient>
<radialGradient id="paint10_radial" cx="0" cy="0" r="1" gradientUnits="userSpaceOnUse" gradientTransform="translate(2315.5 850) rotate(90) scale(850 26.8485)">
<stop/>
<stop offset="1" stop-opacity="0.16"/>
</radialGradient>
<radialGradient id="paint11_radial" cx="0" cy="0" r="1" gradientUnits="userSpaceOnUse" gradientTransform="translate(2305.81 850) rotate(90) scale(850 29.4885)">
<stop/>
<stop offset="1" stop-opacity="0.16"/>
</radialGradient>
<radialGradient id="paint12_radial" cx="0" cy="0" r="1" gradientUnits="userSpaceOnUse" gradientTransform="translate(2295.84 850) rotate(90) scale(850 32.2167)">
<stop/>
<stop offset="1" stop-opacity="0.16"/>
</radialGradient>
<radialGradient id="paint13_radial" cx="0" cy="0" r="1" gradientUnits="userSpaceOnUse" gradientTransform="translate(2285.54 850) rotate(90) scale(850 34.9969)">
<stop/>
<stop offset="1" stop-opacity="0.16"/>
</radialGradient>
<radialGradient id="paint14_radial" cx="0" cy="0" r="1" gradientUnits="userSpaceOnUse" gradientTransform="translate(2274.93 850) rotate(90) scale(850 37.8577)">
<stop/>
<stop offset="1" stop-opacity="0.16"/>
</radialGradient>
<radialGradient id="paint15_radial" cx="0" cy="0" r="1" gradientUnits="userSpaceOnUse" gradientTransform="translate(2264.01 850) rotate(90) scale(850 40.7829)">
<stop/>
<stop offset="1" stop-opacity="0.16"/>
</radialGradient>
<radialGradient id="paint16_radial" cx="0" cy="0" r="1" gradientUnits="userSpaceOnUse" gradientTransform="translate(2252.73 850) rotate(90) scale(850 43.7942)">
<stop/>
<stop offset="1" stop-opacity="0.16"/>
</radialGradient>
<radialGradient id="paint17_radial" cx="0" cy="0" r="1" gradientUnits="userSpaceOnUse" gradientTransform="translate(2241.13 850) rotate(90) scale(850 46.8805)">
<stop/>
<stop offset="1" stop-opacity="0.16"/>
</radialGradient>
<radialGradient id="paint18_radial" cx="0" cy="0" r="1" gradientUnits="userSpaceOnUse" gradientTransform="translate(2229.67 850) rotate(90) scale(850 50.5215)">
<stop/>
<stop offset="1" stop-opacity="0.16"/>
</radialGradient>
<radialGradient id="paint19_radial" cx="0" cy="0" r="1" gradientUnits="userSpaceOnUse" gradientTransform="translate(2217.35 850) rotate(90) scale(850 53.7699)">
<stop/>
<stop offset="1" stop-opacity="0.16"/>
</radialGradient>
<radialGradient id="paint20_radial" cx="0" cy="0" r="1" gradientUnits="userSpaceOnUse" gradientTransform="translate(2204.11 850) rotate(90) scale(850 57.6539)">
<stop/>
<stop offset="1" stop-opacity="0.16"/>
</radialGradient>
<radialGradient id="paint21_radial" cx="0" cy="0" r="1" gradientUnits="userSpaceOnUse" gradientTransform="translate(2190.52 850.005) rotate(90) scale(850.005 60.6354)">
<stop/>
<stop offset="1" stop-opacity="0.16"/>
</radialGradient>
<radialGradient id="paint22_radial" cx="0" cy="0" r="1" gradientUnits="userSpaceOnUse" gradientTransform="translate(2177 850) rotate(90) scale(850 64.1751)">
<stop/>
<stop offset="1" stop-opacity="0.16"/>
</radialGradient>
<radialGradient id="paint23_radial" cx="0" cy="0" r="1" gradientUnits="userSpaceOnUse" gradientTransform="translate(2163.06 850) rotate(90) scale(850 67.7962)">
<stop/>
<stop offset="1" stop-opacity="0.16"/>
</radialGradient>
<radialGradient id="paint24_radial" cx="0" cy="0" r="1" gradientUnits="userSpaceOnUse" gradientTransform="translate(2148.71 850) rotate(90) scale(850 71.507)">
<stop/>
<stop offset="1" stop-opacity="0.16"/>
</radialGradient>
<radialGradient id="paint25_radial" cx="0" cy="0" r="1" gradientUnits="userSpaceOnUse" gradientTransform="translate(2133.9 850) rotate(90) scale(850 75.3264)">
<stop/>
<stop offset="1" stop-opacity="0.16"/>
</radialGradient>
<radialGradient id="paint26_radial" cx="0" cy="0" r="1" gradientUnits="userSpaceOnUse" gradientTransform="translate(2118.63 850) rotate(90) scale(850 79.2363)">
<stop/>
<stop offset="1" stop-opacity="0.16"/>
</radialGradient>
<radialGradient id="paint27_radial" cx="0" cy="0" r="1" gradientUnits="userSpaceOnUse" gradientTransform="translate(2102.9 850) rotate(90) scale(850 83.2581)">
<stop/>
<stop offset="1" stop-opacity="0.16"/>
</radialGradient>
<radialGradient id="paint28_radial" cx="0" cy="0" r="1" gradientUnits="userSpaceOnUse" gradientTransform="translate(2086.67 850) rotate(90) scale(850 87.383)">
<stop/>
<stop offset="1" stop-opacity="0.16"/>
</radialGradient>
<radialGradient id="paint29_radial" cx="0" cy="0" r="1" gradientUnits="userSpaceOnUse" gradientTransform="translate(2070.02 850) rotate(90) scale(850 91.5529)">
<stop/>
<stop offset="1" stop-opacity="0.16"/>
</radialGradient>
<radialGradient id="paint30_radial" cx="0" cy="0" r="1" gradientUnits="userSpaceOnUse" gradientTransform="translate(2052.75 849.995) rotate(90) scale(849.995 95.9408)">
<stop/>
<stop offset="1" stop-opacity="0.16"/>
</radialGradient>
<radialGradient id="paint31_radial" cx="0" cy="0" r="1" gradientUnits="userSpaceOnUse" gradientTransform="translate(2034.94 850) rotate(90) scale(850 100.452)">
<stop/>
<stop offset="1" stop-opacity="0.16"/>
</radialGradient>
<radialGradient id="paint32_radial" cx="0" cy="0" r="1" gradientUnits="userSpaceOnUse" gradientTransform="translate(2016.56 850) rotate(90) scale(850 105.102)">
<stop/>
<stop offset="1" stop-opacity="0.16"/>
</radialGradient>
<radialGradient id="paint33_radial" cx="0" cy="0" r="1" gradientUnits="userSpaceOnUse" gradientTransform="translate(1997.62 850.005) rotate(90) scale(850.005 109.899)">
<stop/>
<stop offset="1" stop-opacity="0.16"/>
</radialGradient>
<radialGradient id="paint34_radial" cx="0" cy="0" r="1" gradientUnits="userSpaceOnUse" gradientTransform="translate(1976.41 850) rotate(90) scale(850 116.499)">
<stop/>
<stop offset="1" stop-opacity="0.16"/>
</radialGradient>
<radialGradient id="paint35_radial" cx="0" cy="0" r="1" gradientUnits="userSpaceOnUse" gradientTransform="translate(1955.94 850.005) rotate(90) scale(850.005 121.886)">
<stop/>
<stop offset="1" stop-opacity="0.16"/>
</radialGradient>
<radialGradient id="paint36_radial" cx="0" cy="0" r="1" gradientUnits="userSpaceOnUse" gradientTransform="translate(1934.86 850) rotate(90) scale(850 127.443)">
<stop/>
<stop offset="1" stop-opacity="0.16"/>
</radialGradient>
<radialGradient id="paint37_radial" cx="0" cy="0" r="1" gradientUnits="userSpaceOnUse" gradientTransform="translate(1913.12 850.005) rotate(90) scale(850.005 133.175)">
<stop/>
<stop offset="1" stop-opacity="0.16"/>
</radialGradient>
<radialGradient id="paint38_radial" cx="0" cy="0" r="1" gradientUnits="userSpaceOnUse" gradientTransform="translate(1889.75 850) rotate(90) scale(850 140.05)">
<stop/>
<stop offset="1" stop-opacity="0.16"/>
</radialGradient>
<radialGradient id="paint39_radial" cx="0" cy="0" r="1" gradientUnits="userSpaceOnUse" gradientTransform="translate(1866.66 850) rotate(90) scale(850 146.151)">
<stop/>
<stop offset="1" stop-opacity="0.16"/>
</radialGradient>
<radialGradient id="paint40_radial" cx="0" cy="0" r="1" gradientUnits="userSpaceOnUse" gradientTransform="translate(1842.92 850) rotate(90) scale(850 152.424)">
<stop/>
<stop offset="1" stop-opacity="0.16"/>
</radialGradient>
<radialGradient id="paint41_radial" cx="0" cy="0" r="1" gradientUnits="userSpaceOnUse" gradientTransform="translate(1819.21 850) rotate(90) scale(850 159.611)">
<stop/>
<stop offset="1" stop-opacity="0.16"/>
</radialGradient>
<radialGradient id="paint42_radial" cx="0" cy="0" r="1" gradientUnits="userSpaceOnUse" gradientTransform="translate(1794.16 849.995) rotate(90) scale(849.995 166.329)">
<stop/>
<stop offset="1" stop-opacity="0.16"/>
</radialGradient>
<radialGradient id="paint43_radial" cx="0" cy="0" r="1" gradientUnits="userSpaceOnUse" gradientTransform="translate(1768.39 849.99) rotate(90) scale(849.99 173.246)">
<stop/>
<stop offset="1" stop-opacity="0.16"/>
</radialGradient>
<radialGradient id="paint44_radial" cx="0" cy="0" r="1" gradientUnits="userSpaceOnUse" gradientTransform="translate(1741.95 850) rotate(90) scale(850 180.369)">
<stop/>
<stop offset="1" stop-opacity="0.16"/>
</radialGradient>
<radialGradient id="paint45_radial" cx="0" cy="0" r="1" gradientUnits="userSpaceOnUse" gradientTransform="translate(1714.79 850) rotate(90) scale(850 187.702)">
<stop/>
<stop offset="1" stop-opacity="0.16"/>
</radialGradient>
<radialGradient id="paint46_radial" cx="0" cy="0" r="1" gradientUnits="userSpaceOnUse" gradientTransform="translate(1687.95 850) rotate(90) scale(850 194.245)">
<stop/>
<stop offset="1" stop-opacity="0.16"/>
</radialGradient>
<radialGradient id="paint47_radial" cx="0" cy="0" r="1" gradientUnits="userSpaceOnUse" gradientTransform="translate(1658.4 850) rotate(90) scale(850 203.046)">
<stop/>
<stop offset="1" stop-opacity="0.16"/>
</radialGradient>
<radialGradient id="paint48_radial" cx="0" cy="0" r="1" gradientUnits="userSpaceOnUse" gradientTransform="translate(1630.13 850.005) rotate(90) scale(850.005 210.057)">
<stop/>
<stop offset="1" stop-opacity="0.16"/>
</radialGradient>
<radialGradient id="paint49_radial" cx="0" cy="0" r="1" gradientUnits="userSpaceOnUse" gradientTransform="translate(1600.17 849.995) rotate(90) scale(849.995 218.294)">
<stop/>
<stop offset="1" stop-opacity="0.16"/>
</radialGradient>
<radialGradient id="paint50_radial" cx="0" cy="0" r="1" gradientUnits="userSpaceOnUse" gradientTransform="translate(1569.54 850) rotate(90) scale(850 226.776)">
<stop/>
<stop offset="1" stop-opacity="0.16"/>
</radialGradient>
<radialGradient id="paint51_radial" cx="0" cy="0" r="1" gradientUnits="userSpaceOnUse" gradientTransform="translate(1538.22 850.005) rotate(90) scale(850.005 235.495)">
<stop/>
<stop offset="1" stop-opacity="0.16"/>
</radialGradient>
<radialGradient id="paint52_radial" cx="0" cy="0" r="1" gradientUnits="userSpaceOnUse" gradientTransform="translate(1506.28 850.01) rotate(90) scale(850.01 244.464)">
<stop/>
<stop offset="1" stop-opacity="0.16"/>
</radialGradient>
<radialGradient id="paint53_radial" cx="0" cy="0" r="1" gradientUnits="userSpaceOnUse" gradientTransform="translate(1473.71 849.995) rotate(90) scale(849.995 253.674)">
<stop/>
<stop offset="1" stop-opacity="0.16"/>
</radialGradient>
<radialGradient id="paint54_radial" cx="0" cy="0" r="1" gradientUnits="userSpaceOnUse" gradientTransform="translate(1440.55 850.005) rotate(90) scale(850.005 263.133)">
<stop/>
<stop offset="1" stop-opacity="0.16"/>
</radialGradient>
<radialGradient id="paint55_radial" cx="0" cy="0" r="1" gradientUnits="userSpaceOnUse" gradientTransform="translate(1405.54 850) rotate(90) scale(850 274.132)">
<stop/>
<stop offset="1" stop-opacity="0.16"/>
</radialGradient>
<radialGradient id="paint56_radial" cx="0" cy="0" r="1" gradientUnits="userSpaceOnUse" gradientTransform="translate(1371.18 850) rotate(90) scale(850 284.232)">
<stop/>
<stop offset="1" stop-opacity="0.16"/>
</radialGradient>
<radialGradient id="paint57_radial" cx="0" cy="0" r="1" gradientUnits="userSpaceOnUse" gradientTransform="translate(1335.5 850) rotate(90) scale(850 293.77)">
<stop/>
<stop offset="1" stop-opacity="0.16"/>
</radialGradient>
<radialGradient id="paint58_radial" cx="0" cy="0" r="1" gradientUnits="userSpaceOnUse" gradientTransform="translate(1300.6 849.995) rotate(90) scale(849.995 304.88)">
<stop/>
<stop offset="1" stop-opacity="0.16"/>
</radialGradient>
<radialGradient id="paint59_radial" cx="0" cy="0" r="1" gradientUnits="userSpaceOnUse" gradientTransform="translate(1266.09 850) rotate(90) scale(850 315.723)">
<stop/>
<stop offset="1" stop-opacity="0.16"/>
</radialGradient>
<radialGradient id="paint60_radial" cx="0" cy="0" r="1" gradientUnits="userSpaceOnUse" gradientTransform="translate(1241.88 849.995) rotate(90) scale(849.995 307.957)">
<stop/>
<stop offset="1" stop-opacity="0.16"/>
</radialGradient>
<radialGradient id="paint61_radial" cx="0" cy="0" r="1" gradientUnits="userSpaceOnUse" gradientTransform="translate(1211.17 850.005) rotate(90) scale(850.005 297.365)">
<stop/>
<stop offset="1" stop-opacity="0.16"/>
</radialGradient>
<radialGradient id="paint62_radial" cx="0" cy="0" r="1" gradientUnits="userSpaceOnUse" gradientTransform="translate(1176.54 850) rotate(90) scale(850 286.558)">
<stop/>
<stop offset="1" stop-opacity="0.16"/>
</radialGradient>
<radialGradient id="paint63_radial" cx="0" cy="0" r="1" gradientUnits="userSpaceOnUse" gradientTransform="translate(1137.48 849.995) rotate(90) scale(849.995 275.107)">
<stop/>
<stop offset="1" stop-opacity="0.16"/>
</radialGradient>
<radialGradient id="paint64_radial" cx="0" cy="0" r="1" gradientUnits="userSpaceOnUse" gradientTransform="translate(1094.76 850) rotate(90) scale(850 263.657)">
<stop/>
<stop offset="1" stop-opacity="0.16"/>
</radialGradient>
<radialGradient id="paint65_radial" cx="0" cy="0" r="1" gradientUnits="userSpaceOnUse" gradientTransform="translate(1048.74 850) rotate(90) scale(850 250.986)">
<stop/>
<stop offset="1" stop-opacity="0.16"/>
</radialGradient>
<radialGradient id="paint66_radial" cx="0" cy="0" r="1" gradientUnits="userSpaceOnUse" gradientTransform="translate(998.343 850) rotate(90) scale(850 239.541)">
<stop/>
<stop offset="1" stop-opacity="0.16"/>
</radialGradient>
<radialGradient id="paint67_radial" cx="0" cy="0" r="1" gradientUnits="userSpaceOnUse" gradientTransform="translate(943.207 850) rotate(90) scale(850 226.93)">
<stop/>
<stop offset="1" stop-opacity="0.16"/>
</radialGradient>
<radialGradient id="paint68_radial" cx="0" cy="0" r="1" gradientUnits="userSpaceOnUse" gradientTransform="translate(883.954 850) rotate(90) scale(850 213.721)">
<stop/>
<stop offset="1" stop-opacity="0.16"/>
</radialGradient>
<radialGradient id="paint69_radial" cx="0" cy="0" r="1" gradientUnits="userSpaceOnUse" gradientTransform="translate(822.278 850) rotate(90) scale(850 198.246)">
<stop/>
<stop offset="1" stop-opacity="0.16"/>
</radialGradient>
<radialGradient id="paint70_radial" cx="0" cy="0" r="1" gradientUnits="userSpaceOnUse" gradientTransform="translate(754.329 850) rotate(90) scale(850 184.482)">
<stop/>
<stop offset="1" stop-opacity="0.16"/>
</radialGradient>
<radialGradient id="paint71_radial" cx="0" cy="0" r="1" gradientUnits="userSpaceOnUse" gradientTransform="translate(682.643 850) rotate(90) scale(850 170.02)">
<stop/>
<stop offset="1" stop-opacity="0.16"/>
</radialGradient>
<radialGradient id="paint72_radial" cx="0" cy="0" r="1" gradientUnits="userSpaceOnUse" gradientTransform="translate(607.455 850) rotate(90) scale(850 154.83)">
<stop/>
<stop offset="1" stop-opacity="0.16"/>
</radialGradient>
<radialGradient id="paint73_radial" cx="0" cy="0" r="1" gradientUnits="userSpaceOnUse" gradientTransform="translate(529.44 850) rotate(90) scale(850 138.479)">
<stop/>
<stop offset="1" stop-opacity="0.16"/>
</radialGradient>
<radialGradient id="paint74_radial" cx="0" cy="0" r="1" gradientUnits="userSpaceOnUse" gradientTransform="translate(448.337 850) rotate(90) scale(850 121.761)">
<stop/>
<stop offset="1" stop-opacity="0.16"/>
</radialGradient>
<radialGradient id="paint75_radial" cx="0" cy="0" r="1" gradientUnits="userSpaceOnUse" gradientTransform="translate(365.006 850) rotate(90) scale(850 104.246)">
<stop/>
<stop offset="1" stop-opacity="0.16"/>
</radialGradient>
<radialGradient id="paint76_radial" cx="0" cy="0" r="1" gradientUnits="userSpaceOnUse" gradientTransform="translate(279.908 849.995) rotate(90) scale(849.995 86.0528)">
<stop/>
<stop offset="1" stop-opacity="0.16"/>
</radialGradient>
<radialGradient id="paint77_radial" cx="0" cy="0" r="1" gradientUnits="userSpaceOnUse" gradientTransform="translate(194.54 850) rotate(90) scale(850 66.3682)">
<stop/>
<stop offset="1" stop-opacity="0.16"/>
</radialGradient>
<radialGradient id="paint78_radial" cx="0" cy="0" r="1" gradientUnits="userSpaceOnUse" gradientTransform="translate(108.406 850.005) rotate(90) scale(850.005 45.4974)">
<stop/>
<stop offset="1" stop-opacity="0.16"/>
</radialGradient>
<radialGradient id="paint79_radial" cx="0" cy="0" r="1" gradientUnits="userSpaceOnUse" gradientTransform="translate(22.9364 850) rotate(90) scale(850 22.9364)">
<stop/>
<stop offset="1" stop-opacity="0.16"/>
</radialGradient>
</defs>
</svg>
